<?xml version="1.0" standalone="no"?>
<!DOCTYPE svg PUBLIC "-//W3C//DTD SVG 20010904//EN"
 "http://www.w3.org/TR/2001/REC-SVG-20010904/DTD/svg10.dtd">
<svg version="1.0" xmlns="http://www.w3.org/2000/svg"
 width="64.000000pt" height="64.000000pt" viewBox="0 0 64.000000 64.000000"
 preserveAspectRatio="xMidYMid meet">

<g transform="translate(0.000000,64.000000) scale(0.100000,-0.100000)"
fill="#000000" stroke="none">
<path d="M226 633 c-12 -12 -6 -33 9 -33 8 0 15 6 15 14 0 17 -14 28 -24 19z"/>
<path d="M237 503 c-4 -3 -7 -15 -7 -25 0 -16 10 -18 117 -18 l116 0 -23 25
c-22 23 -31 25 -110 25 -48 0 -90 -3 -93 -7z"/>
<path d="M423 360 c-52 -23 -56 -49 -12 -81 l31 -22 -23 -18 c-20 -16 -21 -19
-6 -19 14 0 17 -7 15 -37 -3 -44 22 -55 32 -14 3 14 11 26 18 29 9 3 12 -22
12 -97 l0 -101 48 0 c28 0 57 7 71 16 20 15 23 22 17 58 -11 76 -26 113 -61
149 l-35 36 24 16 c47 31 43 64 -9 89 -43 21 -71 20 -122 -4z"/>
</g>
</svg>
