<?xml version="1.0" encoding="UTF-8"?>
<svg version="1.1" xmlns="http://www.w3.org/2000/svg" width="128" height="128">
<path d="M0 0 C3.92419143 0.26161276 5.66686163 0.89230595 8.75 3.25 C9.08 3.91 9.41 4.57 9.75 5.25 C10.74 5.25 11.73 5.25 12.75 5.25 C13.74 5.91 14.73 6.57 15.75 7.25 C18.75 7.41666667 18.75 7.41666667 21.75 7.25 C24.41666667 7.25 27.08333333 7.25 29.75 7.25 C28 11.125 28 11.125 25.75 12.25 C24.04297265 12.31996014 22.33331997 12.33440154 20.625 12.3125 C19.71492188 12.30347656 18.80484375 12.29445313 17.8671875 12.28515625 C17.16851562 12.27355469 16.46984375 12.26195312 15.75 12.25 C18.21577551 17.55044657 22.17396354 19.97245707 26.875 23.125 C28.41499984 24.18614095 29.95407117 25.24863075 31.4921875 26.3125 C32.22920898 26.81910156 32.96623047 27.32570313 33.72558594 27.84765625 C48.75160443 38.25641774 48.75160443 38.25641774 50.75 46.25 C47.78 46.25 44.81 46.25 41.75 46.25 C41.27820313 45.23679688 40.80640625 44.22359375 40.3203125 43.1796875 C37.49286831 38.24221033 33.23154008 35.54929572 28.625 32.375 C26.91420419 31.15056874 25.20584941 29.92271937 23.5 28.69140625 C22.68144531 28.10246582 21.86289063 27.51352539 21.01953125 26.90673828 C8.51613401 17.7793659 8.51613401 17.7793659 7.625 12.1875 C7.66625 11.218125 7.7075 10.24875 7.75 9.25 C6.76 8.92 5.77 8.59 4.75 8.25 C4.30054043 11.24639715 4.28479951 13.4425721 5.82226562 16.11108398 C9.58642254 21.13562878 13.66614783 24.98698237 18.625 28.8125 C20.04106632 29.93531347 21.45643871 31.0590027 22.87109375 32.18359375 C23.54124512 32.71194824 24.21139648 33.24030273 24.90185547 33.78466797 C27.20009423 35.60686467 29.45807318 37.46926491 31.6875 39.375 C32.27402344 39.87257812 32.86054687 40.37015625 33.46484375 40.8828125 C34.75 42.25 34.75 42.25 35.75 45.25 C33.88381448 47.11618552 31.25222346 46.5985526 28.7578125 46.7734375 C26.75 46.25 26.75 46.25 25.28515625 44 C24.77855469 43.0925 24.27195312 42.185 23.75 41.25 C21.55535468 38.99047083 21.55535468 38.99047083 19.0625 36.875 C18.17691406 36.09640625 17.29132813 35.3178125 16.37890625 34.515625 C14.76581437 33.1254418 13.14938399 31.73910694 11.52734375 30.359375 C2.75314417 22.85312334 -3.52403511 15.67119274 -4.5625 3.625 C-4.08228601 -0.0246263 -3.81079717 0.29313824 0 0 Z M10.75 6.25 C11.08 7.24 11.41 8.23 11.75 9.25 C11.75 8.26 11.75 7.27 11.75 6.25 C11.42 6.25 11.09 6.25 10.75 6.25 Z " fill="#5DBC66" transform="translate(50.25,40.75)"/>
<path d="M0 0 C1.21795861 2.43591721 0.94217098 3.67587117 0.75 6.375 C0.73450826 17.17274122 6.22597887 24.98790554 13.25317383 32.63598633 C17.77866617 37.58513515 17.77866617 37.58513515 18 41 C17 42 17 42 15.15234375 42.09765625 C13.1015625 42.06510417 11.05078125 42.03255208 9 42 C8.59007812 40.99453125 8.18015625 39.9890625 7.7578125 38.953125 C6.08019581 35.03802893 4.03934801 31.41274278 1.875 27.75 C-1.58789336 21.86680484 -3.13101679 17.94388974 -3 11 C-3.66 11 -4.32 11 -5 11 C-4.18134438 19.62411352 -2.22447512 26.51531012 1.7578125 34.22265625 C3 37 3 37 3 41 C0.03 41 -2.94 41 -6 41 C-6.12375 39.659375 -6.2475 38.31875 -6.375 36.9375 C-6.70412496 33.88951669 -7.19232543 31.34383088 -8.0625 28.375 C-9.06290393 24.77354585 -9.15179977 21.71909431 -9 18 C-10.19741125 23.07901937 -10.35595392 28.19187514 -10.60546875 33.38085938 C-10.89759026 38.79518053 -10.89759026 38.79518053 -12 41 C-14.97 41 -17.94 41 -21 41 C-20.58427734 39.87851563 -20.58427734 39.87851563 -20.16015625 38.734375 C-19.79792969 37.74953125 -19.43570312 36.7646875 -19.0625 35.75 C-18.52302734 34.28820312 -18.52302734 34.28820312 -17.97265625 32.796875 C-17.18620345 30.53542839 -16.52748399 28.33203448 -16 26 C-16.39832031 26.62648438 -16.79664063 27.25296875 -17.20703125 27.8984375 C-17.73683594 28.71570313 -18.26664063 29.53296875 -18.8125 30.375 C-19.33457031 31.18710938 -19.85664063 31.99921875 -20.39453125 32.8359375 C-22 35 -22 35 -25 37 C-25.36923077 31.58461538 -25.36923077 31.58461538 -23.5 28.625 C-23.005 28.08875 -22.51 27.5525 -22 27 C-22.99 27 -23.98 27 -25 27 C-23.89847594 25.56047403 -22.7936696 24.12345929 -21.6875 22.6875 C-21.07261719 21.88699219 -20.45773438 21.08648437 -19.82421875 20.26171875 C-18 18 -18 18 -16.3671875 16.41015625 C-14.72348282 14.86352157 -14.72348282 14.86352157 -13.4375 11.75 C-10.67768315 6.64325228 -5.75325069 4.0649376 -1 1 C-0.67 0.67 -0.34 0.34 0 0 Z M-4 7 C-3 10 -3 10 -3 10 Z " fill="#5DBC66" transform="translate(38,45)"/>
<path d="M0 0 C2.6875 -0.3125 2.6875 -0.3125 5 0 C4.7834375 0.93972656 4.7834375 0.93972656 4.5625 1.8984375 C4.376875 2.71570312 4.19125 3.53296875 4 4.375 C3.814375 5.18710937 3.62875 5.99921875 3.4375 6.8359375 C2.93394761 8.95874951 2.93394761 8.95874951 3 11 C3.59425781 11.15855469 4.18851563 11.31710938 4.80078125 11.48046875 C11.52497495 13.37328222 17.71039612 15.97477228 24 19 C24 18.34 24 17.68 24 17 C27.22432672 18.15154526 29.33105262 19.91327036 31.18359375 22.8046875 C33.07718774 27.89655269 32.85265063 33.6217479 33 39 C30.03 39 27.06 39 24 39 C23.4121875 37.453125 23.4121875 37.453125 22.8125 35.875 C19.83468996 29.04113181 15.10036546 25.10365663 9.2578125 20.7265625 C7.24401292 19.18659812 5.37627815 17.57674065 3.5 15.875 C-0.28326938 12.56352656 -4.54303198 10.28406978 -9 8 C-9 7.34 -9 6.68 -9 6 C-8.071875 5.938125 -7.14375 5.87625 -6.1875 5.8125 C-2.80069894 5.34452754 -2.80069894 5.34452754 -1.4375 2.4375 C-0.7259375 1.2309375 -0.7259375 1.2309375 0 0 Z " fill="#5DBC66" transform="translate(83,48)"/>
<path d="M0 0 C0.66 0.33 1.32 0.66 2 1 C1.93039063 1.58265625 1.86078125 2.1653125 1.7890625 2.765625 C1.15428817 12.37792197 5.27611757 20.06394318 11.375 27.3125 C14.41892121 30.56518572 17.73532054 33.44890941 21.1328125 36.32421875 C23.74410307 38.66782472 25.84376271 41.23732097 28 44 C27.67 44.66 27.34 45.32 27 46 C24.36 46 21.72 46 19 46 C18.566875 45.071875 18.13375 44.14375 17.6875 43.1875 C15.57953264 39.42327257 12.83751842 36.8625171 9.6875 33.9375 C2.07745137 26.65799141 -3.30055671 18.08640585 -3.625 7.25 C-3.5390625 4.328125 -3.5390625 4.328125 -3 2 C-2.01 1.34 -1.02 0.68 0 0 Z " fill="#5DBC66" transform="translate(43,41)"/>
<path d="M0 0 C1.65 0 3.3 0 5 0 C4.34 2.97 3.68 5.94 3 9 C3.99 9 4.98 9 6 9 C6.33 7.68 6.66 6.36 7 5 C7.66 5 8.32 5 9 5 C10.6875 6.6875 10.6875 6.6875 12 9 C11.6875 11.75 11.6875 11.75 11 14 C5.72250715 13.46148032 1.74354436 12.22656164 -3 10 C-2.39009109 6.44219804 -1.4216319 3.3171411 0 0 Z " fill="#5DBC66" transform="translate(91,48)"/>
<path d="M0 0 C0.33 0.66 0.66 1.32 1 2 C0.34 1.67 -0.32 1.34 -1 1 C-0.67 0.67 -0.34 0.34 0 0 Z " fill="#5DBC66" transform="translate(32,47)"/>
</svg>
